<svg viewBox="0 0 24 24" fill="none" xmlns="http://www.w3.org/2000/svg" x="0" y="0"><g id="Icon_3">
<path id="Vector_17" d="M21.73,18l-8,-14c-0.174,-0.308 -0.427,-0.564 -0.733,-0.742c-0.305,-0.178 -0.653,-0.272 -1.007,-0.272c-0.353,0 -0.701,0.094 -1.007,0.272c-0.305,0.178 -0.558,0.434 -0.733,0.742l-8,14c-0.176,0.306 -0.268,0.652 -0.268,1.005c0.001,0.352 0.095,0.698 0.273,1.003c0.178,0.305 0.433,0.557 0.739,0.731c0.307,0.174 0.654,0.264 1.006,0.261h16c0.351,0 0.696,-0.093 1,-0.268c0.303,-0.176 0.556,-0.429 0.731,-0.733c0.175,-0.304 0.267,-0.648 0.267,-0.999c0,-0.351 -0.092,-0.696 -0.268,-1z" stroke="white" stroke-width="2" stroke-linecap="round" stroke-linejoin="round"/>
<path id="Vector_18" d="M12,9v4" stroke="white" stroke-width="2" stroke-linecap="round" stroke-linejoin="round"/>
<path id="Vector_19" d="M12,17h0.01" stroke="white" stroke-width="2" stroke-linecap="round" stroke-linejoin="round"/>
</g></svg>