<svg viewBox="0 0 16 16" fill="none" xmlns="http://www.w3.org/2000/svg" x="0" y="0"><defs><clipPath id="clip5_431_1931">
<rect width="16" height="16" fill="white" transform="translate(-0.00009999999997489795, 0)"/>
</clipPath></defs><g id="Icon_10" clip-path="url(#clip5_431_1931)">
<path id="Vector_42" d="M14.4869,12l-5.334,-9.333c-0.116,-0.205 -0.285,-0.376 -0.488,-0.494c-0.204,-0.119 -0.436,-0.182 -0.672,-0.182c-0.235,0 -0.467,0.063 -0.671,0.182c-0.204,0.118 -0.372,0.289 -0.489,0.494l-5.333,9.333c-0.117,0.204 -0.179,0.435 -0.179,0.67c0.001,0.235 0.064,0.466 0.182,0.669c0.118,0.203 0.289,0.371 0.493,0.487c0.204,0.117 0.436,0.177 0.671,0.174h10.666c0.234,0 0.464,-0.062 0.667,-0.179c0.202,-0.117 0.37,-0.285 0.487,-0.488c0.117,-0.202 0.178,-0.432 0.178,-0.666c0,-0.234 -0.061,-0.464 -0.178,-0.667z" stroke="#E7000B" stroke-width="1.33333" stroke-linecap="round" stroke-linejoin="round"/>
<path id="Vector_43" d="M7.9999,6v2.667" stroke="#E7000B" stroke-width="1.33333" stroke-linecap="round" stroke-linejoin="round"/>
<path id="Vector_44" d="M7.9999,11.333h0.007" stroke="#E7000B" stroke-width="1.33333" stroke-linecap="round" stroke-linejoin="round"/>
</g></svg>