<svg viewBox="0 0 16 16" fill="none" xmlns="http://www.w3.org/2000/svg" x="0" y="0"><g id="Icon_11">
<path id="Vector_45" d="M7.3329,14.487c0.203,0.117 0.433,0.179 0.667,0.179c0.234,0 0.464,-0.062 0.667,-0.179l4.666,-2.667c0.203,-0.117 0.371,-0.285 0.488,-0.487c0.117,-0.203 0.179,-0.432 0.179,-0.666v-5.333c0,-0.234 -0.062,-0.464 -0.179,-0.666c-0.117,-0.203 -0.285,-0.371 -0.488,-0.488l-4.666,-2.666c-0.203,-0.117 -0.433,-0.179 -0.667,-0.179c-0.234,0 -0.464,0.062 -0.667,0.179l-4.666,2.666c-0.203,0.117 -0.371,0.285 -0.488,0.488c-0.117,0.202 -0.179,0.432 -0.179,0.666v5.333c0,0.234 0.062,0.463 0.179,0.666c0.117,0.202 0.285,0.37 0.488,0.487z" stroke="#D08700" stroke-width="1.33333" stroke-linecap="round" stroke-linejoin="round"/>
<path id="Vector_46" d="M7.9999,14.667v-6.667" stroke="#D08700" stroke-width="1.33333" stroke-linecap="round" stroke-linejoin="round"/>
<path id="Vector_47" d="M2.1929,4.667l5.807,3.333l5.807,-3.333" stroke="#D08700" stroke-width="1.33333" stroke-linecap="round" stroke-linejoin="round"/>
<path id="Vector_48" d="M4.9999,2.847l6,3.433" stroke="#D08700" stroke-width="1.33333" stroke-linecap="round" stroke-linejoin="round"/>
</g></svg>