<svg viewBox="0 0 16 16" fill="none" xmlns="http://www.w3.org/2000/svg" x="0" y="0"><defs><clipPath id="clip2_431_1931">
<rect width="16" height="16" fill="white" transform="translate(0, 0)"/>
</clipPath></defs><g id="Icon_7" clip-path="url(#clip2_431_1931)">
<path id="Vector_36" d="M14.534,6.667c0.305,1.494 0.088,3.047 -0.615,4.401c-0.702,1.353 -1.847,2.425 -3.244,3.037c-1.397,0.611 -2.961,0.726 -4.432,0.323c-1.471,-0.402 -2.759,-1.296 -3.651,-2.534c-0.891,-1.237 -1.331,-2.743 -1.247,-4.265c0.085,-1.523 0.688,-2.97 1.711,-4.102c1.022,-1.131 2.402,-1.877 3.908,-2.115c1.506,-0.237 3.049,0.049 4.369,0.811" stroke="white" stroke-width="1.33333" stroke-linecap="round" stroke-linejoin="round"/>
<path id="Vector_37" d="M6,7.334l2,2l6.667,-6.667" stroke="white" stroke-width="1.33333" stroke-linecap="round" stroke-linejoin="round"/>
</g></svg>