<?xml version="1.0" encoding="utf-8"?>
<svg xmlns="http://www.w3.org/2000/svg" viewBox="0 0 500 500" xmlns:bx="https://boxy-svg.com" width="500px" height="500px"><g id="Graphic Elements" transform="matrix(1, 0, 0, 1, -98.497231, -369.452911)"><g id="&lt;Group&gt;" style="transform-origin: 596.348px 584.507px;" transform="matrix(1, 0, 0, 1, -243.946548, 199.644394)"><g id="&lt;Group&gt;-2" transform="matrix(0.184813, 0, 0, 0.18884, 325.99585, 250.293686)" style=""><path id="&lt;Path&gt;" class="s0" d="m750.02 376.45c-4.66-26.54-8.33-53.08-11.73-79.62l-1.24-9.95-0.61-4.98-0.15-1.24c-0.05-0.41-0.09-0.87-0.17-1.14l-0.4-1.87c-1.05-4.93-2.94-9.5-5.5-13.49-2.59-3.98-5.77-7.44-9.44-10.1-3.67-2.65-7.66-4.61-11.77-5.72-4.11-1.11-8.25-1.48-12.29-1.09l-18.57 1.7-19.91 1.73q-9.96 0.87-19.91 1.64c-26.55 2.15-53.09 4-79.64 5.64-13.28 0.85-26.55 1.59-39.83 2.32l-4.97 0.28-2.49 0.13-0.63 0.03-0.3 0.02-0.12 0.02-0.46 0.11q-0.46 0.1-0.92 0.17c-0.31 0.04-0.62 0.05-0.9 0.18-0.58 0.22-1.17 0.32-1.73 0.5-2.25 0.74-4.23 2.03-5.99 3.48-1.76 1.48-3.23 3.26-4.3 5.19-1.06 1.94-1.77 3.95-2.1 5.99-0.21 1.01-0.19 2.05-0.22 3.09q0.05 0.4 0.07 0.79v0.39 0.2l-0.01 0.1 0.01 0.26 0.19 4.98 0.64 19.91c0.87 26.56 1.48 53.11 1.98 79.66 0.15 6.64 0.21 13.28 0.31 19.92v0.31l-0.01 0.53-0.02 1.08-0.07 2.16-0.2 4.3c-0.04 1.44-0.24 2.87-0.43 4.31q-0.29 2.15-0.61 4.29c-0.36 2.88-1.15 5.68-1.83 8.5-0.38 1.4-0.67 2.83-1.17 4.19q-0.69 2.06-1.43 4.11c-7.93 21.87-24.05 40.35-44.52 51.31-2.59 1.31-5.2 2.61-7.86 3.75q-4.06 1.59-8.19 3.02-4.19 1.2-8.43 2.22c-2.83 0.61-5.71 1.01-8.57 1.43-1.44 0.24-2.87 0.34-4.31 0.42l-4.32 0.24c-3.42 0.16-4.38 0.09-6.18 0.11l-9.96 0.02-39.84-0.2c-13.28-0.16-26.55-0.24-39.83-0.46l-36.93-0.66q-2.95-0.02-5.75 0.99c-1.86 0.66-3.71 1.68-5.33 3.04-1.63 1.36-3.01 3.05-4.09 4.91-1.05 1.88-1.77 3.95-2.1 6.26l-0.08 0.44-0.05 0.21c-0.01 0.05-0.02 0.06-0.03 0.13l-0.01 0.31-0.09 2.49-0.19 4.98-0.41 9.96-0.83 19.92c-0.63 13.28-1.22 26.56-1.95 39.84-0.67 13.29-1.49 26.57-2.26 39.85-0.86 13.28-1.68 26.56-2.65 39.85q-0.68 9.96-1.45 19.92l-1.26 16.88c-0.1 3.81 0.52 7.7 1.89 11.48 1.37 3.78 3.52 7.4 6.29 10.63 2.78 3.25 6.23 6.01 10.16 8.16l1.47 0.83c0.51 0.23 1.04 0.42 1.56 0.64l1.58 0.68c0.52 0.27 1.09 0.34 1.63 0.53l1.66 0.52c0.28 0.08 0.56 0.19 0.84 0.25l0.86 0.16 1.74 0.35 0.88 0.19c0.16 0.03 0.25 0.07 0.48 0.09l0.62 0.06q19.93 2.06 39.85 4.41c26.57 3.17 53.15 6.61 79.72 11.05-26.53 4.69-53.07 8.37-79.61 11.79q-19.91 2.53-39.81 4.77l-0.62 0.07c-0.19 0.03-0.52 0.03-0.77 0.05l-1.61 0.07-3.24 0.12-1.62 0.05c-0.54 0-1.09-0.05-1.63-0.08l-3.26-0.22c-1.09-0.1-2.2-0.1-3.27-0.31l-3.25-0.54c-1.09-0.19-2.18-0.37-3.27-0.6l-3.2-0.86c-8.57-2.33-16.76-6.36-24.06-11.76-7.31-5.4-13.66-12.25-18.67-20.12-5.02-7.87-8.5-16.86-10.31-26.2l-0.37-1.76c-0.12-0.58-0.16-1.17-0.25-1.76l-0.42-3.55-0.19-1.78-0.15-1.61-0.22-2.49-0.85-9.95q-0.86-9.96-1.64-19.91c-1.09-13.28-2.04-26.55-3.02-39.82-0.89-13.28-1.83-26.55-2.62-39.83-0.86-13.27-1.57-26.55-2.32-39.82l-1.02-19.91-0.5-9.96-0.24-4.98-0.11-2.49-0.01-0.31v-0.49-1.03l0.03-2.06c0.08-10.95 2.2-22.07 6.27-32.44 4.06-10.4 10.17-19.95 17.72-28.17 7.56-8.22 16.64-15.11 26.76-20.14 10.11-5.03 21.23-8.2 32.48-9.28l4.23-0.31c1.34-0.08 3.07-0.18 3.65-0.19l4.98-0.16 9.95-0.26 19.92-0.52c13.27-0.35 26.55-0.56 39.83-0.84l39.83-0.56 9.96-0.08c1.51-0.02 3.88-0.01 3.77-0.1q0.32-0.04 0.65-0.04c0.22 0.01 0.44 0.03 0.64-0.06 0.41-0.13 0.84-0.11 1.24-0.21q0.58-0.23 1.2-0.31 0.55-0.31 1.15-0.46c0.37-0.19 0.72-0.43 1.12-0.55 1.48-0.78 2.85-1.85 3.99-3.14 1.15-1.28 2.01-2.76 2.64-4.29q0.11-0.29 0.27-0.57c0.13-0.18 0.08-0.41 0.16-0.6 0.06-0.41 0.35-0.78 0.32-1.22q0.04-0.32 0.11-0.63c0.06-0.21 0.15-0.41 0.11-0.64q-0.01-0.33 0.03-0.66l0.05-0.34 0.03-0.16 0.02-0.09v-0.31c0.04-6.64 0.04-13.28 0.13-19.92 0.25-26.56 0.61-53.12 1.23-79.68l0.45-19.92 0.15-4.98 0.09-1.92 0.12-2.1 0.29-4.18c0.62-5.56 1.61-11.11 3.22-16.49 3.13-10.77 8.25-20.92 14.99-29.72 6.72-8.81 15-16.33 24.34-22.15 9.33-5.81 19.76-9.9 30.51-11.89 2.68-0.5 5.4-0.8 8.09-1.13 1.35-0.19 2.7-0.23 4.06-0.28l4.05-0.11 2.02-0.03h0.51l0.31 0.01 0.63 0.03 2.49 0.1 4.98 0.23c13.28 0.61 26.56 1.22 39.84 1.95 26.56 1.4 53.13 3.01 79.69 4.9q9.96 0.68 19.92 1.45l19.93 1.55 9.96 0.82 4.98 0.4 2.85 0.27 3.47 0.37c9.2 1.14 18.17 3.92 26.18 8.23 8.01 4.3 15.13 9.99 20.88 16.7 5.76 6.7 10.19 14.4 13.02 22.53 2.86 8.13 4.13 16.68 3.82 24.98l-0.12 3.11c-0.02 0.56-0.07 0.92-0.12 1.35l-0.13 1.24-0.57 4.98-1.15 9.97c-3.15 26.57-6.57 53.14-10.98 79.72z" style="fill: rgb(30, 30, 36);"/></g><g id="&lt;Group&gt;-2" transform="matrix(0.184813, 0, 0, 0.18884, 325.99585, 250.293686)" style=""><path id="&lt;Path&gt;-2" class="s0" d="m630.47 569.76c-3.65 1.95-7.32 3.79-10.91 5.78-3.63 1.91-7.2 3.93-10.76 5.94-7.09 4.05-14.05 8.24-20.82 12.66-6.79 4.37-13.36 9.01-19.75 13.79-3.2 2.38-6.29 4.88-9.4 7.34-3.03 2.54-6.08 5.06-8.99 7.7-5.89 5.21-11.5 10.64-16.77 16.31-5.21 5.67-10.11 11.41-14.45 17.52l-1.65 2.27c-0.54 0.75-1.03 1.55-1.55 2.32-1.01 1.57-2.07 3.08-3.06 4.65l-2.84 4.76q-0.73 1.17-1.36 2.4l-1.3 2.44-1.3 2.42c-0.42 0.81-0.8 1.65-1.2 2.48-0.78 1.66-1.63 3.27-2.35 4.95l-2.16 5.04c-0.71 1.68-1.3 3.42-1.96 5.12-2.49 6.87-4.72 13.82-6.35 21.02-1.65 7.17-3.11 14.41-4.05 21.84l-0.4 2.77-0.3 2.8-0.62 5.61c-0.34 3.89-0.75 7.76-1.03 11.64-0.24 3.88-0.6 7.74-0.74 11.62l-0.3 5.8c-0.1 1.93-0.13 3.87-0.2 5.8-0.47 15.47-0.24 30.93 0.58 46.65 0.34 7.85 0.85 15.8 1.38 23.77l1.72 24.22c0.57 8.14 1.19 16.35 1.7 24.61l1.62 23.89 0.5 5.8 0.26 2.67 0.13 1.28 0.15 1.2c0.39 3.17 0.87 5.78 1.43 7.77 0.56 2 1.15 3.36 1.76 4.34 0.17 0.22 0.29 0.48 0.46 0.69 0.18 0.19 0.29 0.43 0.47 0.61q0.14 0.15 0.26 0.3c0.08 0.1 0.13 0.2 0.27 0.33 0.25 0.24 0.45 0.51 0.68 0.76 1.86 1.98 4.29 3.58 6.88 4.59 2.6 1 5.3 1.43 7.74 1.22l23.77-0.75 24.51-0.66c32.68-0.9 65.37-1.53 98.05-2.06l24.52-0.34 12.25-0.14 1.48-0.03q0.2-0.04 0.41-0.07 0.4-0.06 0.81-0.05c0.28 0.05 0.52-0.11 0.78-0.14q0.38-0.09 0.77-0.11c2.01-0.46 3.86-1.38 5.53-2.66 1.65-1.29 3.14-2.92 3.98-4.8 0.9-1.85 1.44-3.76 1.52-5.93q0.03-0.2 0.06-0.4l0.01-1.47-0.01-3.06-0.01-6.13-0.03-12.26 0.15-49.03 0.42-49.03c0.05-2.21-0.01-3.44 0.21-7.59q0.13-2.62 0.32-5.24c0.13-1.75 0.46-3.49 0.71-5.23 0.27-1.74 0.55-3.47 0.89-5.2q0.62-2.57 1.3-5.12c0.83-3.43 2.08-6.73 3.33-10.02q0.47-1.23 0.97-2.45l1.12-2.39q1.14-2.38 2.33-4.72c0.38-0.8 0.83-1.55 1.28-2.3l1.36-2.25c0.93-1.49 1.84-2.98 2.83-4.43q1.54-2.11 3.14-4.19c1.07-1.38 2.12-2.78 3.32-4.05 2.36-2.56 4.66-5.18 7.31-7.46 10.27-9.39 22.64-16.49 35.98-20.55 3.36-0.88 6.73-1.81 10.14-2.4q2.57-0.4 5.15-0.74l2.57-0.33c0.86-0.09 1.72-0.11 2.58-0.16q2.58-0.13 5.16-0.2l1.29-0.03 0.64-0.02 0.41 0.01 1.53 0.04 6.13 0.13c16.35 0.34 32.69 0.81 49.04 1.26 16.35 0.46 32.69 1.02 49.04 1.57l12.26 0.46 6.13 0.22 3.06 0.12 0.77 0.03 0.37 0.01h0.16 0.61c3.27 0.18 6.51-0.24 9.68-1.45l0.31-0.09 0.28-0.15 0.57-0.29q0.57-0.27 1.18-0.52 0.53-0.36 1.09-0.69c0.37-0.23 0.8-0.38 1.11-0.69 0.65-0.57 1.48-0.97 2.08-1.62q0.49-0.45 1.02-0.87c0.33-0.3 0.59-0.66 0.91-0.98 2.42-2.62 4.43-5.77 5.47-9.36q0.14-0.68 0.35-1.36l0.21-0.69c0.09-0.23 0.07-0.47 0.12-0.71q0.09-0.71 0.23-1.43l0.08-0.36c0.02-0.15 0.06-0.17 0.06-0.48l0.08-1.54 0.63-12.26 1.35-24.52c1.85-32.7 3.94-65.39 6.34-98.09q1.81-24.53 3.85-49.05l0.26-3.07 0.06-0.76c0.02-0.25 0.05-0.54 0.06-0.69l0.06-1.11 0.16-2.23 0.04-0.56-0.03-0.56-0.05-1.11q-0.04-1.12-0.05-2.26l-0.3-2.24c-0.12-0.74-0.13-1.53-0.33-2.26l-0.53-2.23-0.26-1.13c-0.1-0.37-0.25-0.73-0.37-1.09l-0.75-2.21c-0.21-0.77-0.61-1.43-0.92-2.16l-0.97-2.17-1.19-2.06c-0.42-0.67-0.74-1.44-1.25-2.05l-1.4-1.98c-0.24-0.32-0.46-0.68-0.71-0.99l-0.81-0.91c-4.18-5-9.6-9.2-15.85-12.11-0.79-0.35-1.6-0.63-2.41-0.96-0.81-0.29-1.61-0.68-2.44-0.92l-2.54-0.7c-0.85-0.23-1.7-0.52-2.57-0.63l-2.64-0.46-1.34-0.23-1.54-0.17-6.13-0.67c-16.35-1.85-32.7-3.67-49.06-5.95 16.33-2.43 32.67-4.41 49-6.41l6.13-0.73 1.53-0.18 1.72-0.1 3.48-0.18c1.18-0.1 2.34-0.01 3.51 0.04l3.53 0.2c1.18 0.08 2.34 0.32 3.51 0.48 1.18 0.19 2.36 0.35 3.53 0.59 9.34 2.01 18.35 6.27 26.14 12.37l1.48 1.14c0.48 0.39 0.92 0.83 1.38 1.24l2.74 2.55c0.95 0.82 1.71 1.81 2.57 2.73l2.49 2.83 2.24 3.06c0.73 1.03 1.54 2.03 2.14 3.14l1.94 3.31c0.31 0.55 0.65 1.1 0.94 1.67l0.81 1.74 1.6 3.52c0.55 1.17 0.89 2.41 1.34 3.63q0.64 1.83 1.23 3.69l0.9 3.8 0.43 1.91 0.21 0.96 0.13 0.97 0.5 3.89 0.23 1.95 0.15 1.61 0.29 3.06q2.27 24.51 4.3 49.01c2.71 32.68 5.11 65.35 7.26 98.03l1.57 24.51 0.75 12.25 0.09 1.53c0.02 0.2 0.02 0.69 0.02 1.05v1.17q0 2.34-0.04 4.69c-0.03 0.78 0 1.57-0.09 2.35l-0.23 2.35q-0.24 2.35-0.54 4.7c-3.76 25.09-19.57 48.28-42.24 61.05-11.29 6.41-24.2 10.32-37.25 11.14l-2.45 0.18-1 0.05-0.77 0.04-3.06 0.14-6.13 0.29-12.25 0.57c-16.34 0.7-32.68 1.41-49.03 2.02-16.34 0.6-32.68 1.23-49.02 1.71l-6.13 0.2-1.53 0.05-0.35 0.01-0.12 0.03-0.25 0.05q-0.48 0.1-0.96 0.14c-0.16 0.03-0.32 0.01-0.48 0.05q-0.22 0.08-0.45 0.15-0.45 0.13-0.91 0.2-0.11 0.02-0.23 0.04l-0.21 0.1q-0.21 0.1-0.42 0.18-0.43 0.16-0.88 0.25c-2.23 0.95-4.25 2.38-5.89 4.16-0.49 0.37-0.74 0.96-1.15 1.39-0.24 0.19-0.34 0.49-0.49 0.74q-0.23 0.39-0.51 0.74c-0.13 0.26-0.22 0.55-0.37 0.8q-0.1 0.19-0.22 0.38c-0.08 0.12-0.16 0.24-0.19 0.38q-0.12 0.42-0.3 0.81-0.09 0.2-0.19 0.39-0.05 0.21-0.09 0.42c-0.12 0.55-0.4 1.06-0.41 1.64q-0.06 0.42-0.19 0.82c-0.01 0.28 0 0.57-0.03 0.85-0.01 0.29-0.12 0.56-0.09 0.85q0.05 0.44 0.04 0.88c-0.06-0.07 0.01 2.79 0.05 4.67l0.88 49.03 0.61 49.02 0.09 12.26 0.04 6.13 0.02 3.06 0.01 1.6-0.08 2.66c-0.32 14.17-3.88 28.47-10.4 41.18-6.46 12.76-15.93 23.83-27.26 32.43-11.33 8.59-24.65 14.76-38.68 17.53q-2.63 0.45-5.28 0.84c-1.76 0.24-3.52 0.56-5.29 0.63q-2.65 0.17-5.31 0.28l-2.65 0.1h-1.59l-12.26-0.04-24.51-0.1c-32.69-0.23-65.38-0.56-98.07-1.15l-24.52-0.43-25.26-0.59c-6.95-0.22-13.83-1.21-20.45-2.96-6.63-1.76-13-4.28-19.02-7.42-12.01-6.3-22.61-15.22-30.79-26.14-1.02-1.37-1.98-2.78-2.94-4.19-0.97-1.4-1.9-3.01-2.8-4.52-0.91-1.54-1.7-3.14-2.52-4.73-0.79-1.59-1.48-3.21-2.19-4.83-2.72-6.5-4.43-13.03-5.49-19.03-1.06-6.03-1.51-11.55-1.73-16.52l-0.08-1.86-0.05-1.78c-0.04-1.21-0.06-2.32-0.07-3.45l-0.02-6.45 0.38-25.12 0.53-24.41c0.32-16.38 0.8-33.08 1.77-50.06 0.5-8.47 1.21-17.03 2.03-25.58 0.48-4.29 0.88-8.57 1.48-12.85l0.85-6.42c0.28-2.14 0.64-4.27 0.96-6.41 1.25-8.54 2.87-17.03 4.62-25.45 0.87-4.21 1.87-8.39 2.8-12.58 0.49-2.12 1.07-4.3 1.61-6.44l0.83-3.22 0.92-3.22c2.38-8.57 5.29-17.11 8.66-25.48 3.32-8.39 7.27-16.61 11.72-24.52 4.41-7.94 9.45-15.56 14.99-22.71l2.08-2.68q1.02-1.35 2.14-2.63l4.4-5.13c1.5-1.67 3.06-3.29 4.6-4.92 0.78-0.8 1.53-1.63 2.33-2.41l2.41-2.33c1.63-1.52 3.18-3.12 4.87-4.57l5.01-4.37c1.67-1.45 3.45-2.76 5.16-4.14 1.72-1.37 3.45-2.73 5.22-3.97 6.95-5.19 14.23-9.84 21.6-14.17 7.39-4.32 14.93-8.28 22.63-11.79 7.67-3.55 15.44-6.79 23.32-9.61 15.75-5.69 31.76-10.16 47.95-13.37z" style="fill: rgb(30, 30, 36);"/></g><g id="&lt;Group&gt;-2" transform="matrix(0.184813, 0, 0, 0.18884, 325.99585, 250.293686)" style=""><path id="&lt;Path&gt;-2" class="s1" d="m418.65 672.85q-1.43-4.01-2.7-8.08c-0.86-2.72-1.59-5.47-2.36-8.23q-0.55-2.07-1.03-4.17-0.52-2.09-0.95-4.19l-0.89-4.23-0.78-4.27c-1.99-11.4-2.84-23.14-2.55-35.13 0.26-5.98 0.66-12.04 1.65-18.09 0.39-3.04 1.02-6.07 1.65-9.11 0.28-1.52 0.72-3.02 1.09-4.54 0.4-1.51 0.74-3.04 1.2-4.54 3.53-12.07 8.84-23.99 16.01-35.03l2.82-4.04c0.95-1.35 1.88-2.72 2.93-3.99 2.07-2.56 4.08-5.23 6.35-7.63l3.37-3.68c1.15-1.19 2.37-2.31 3.56-3.47 1.2-1.14 2.39-2.32 3.62-3.43l3.78-3.22c10.19-8.5 21.44-15.55 33.12-21.19 1.46-0.7 2.92-1.46 4.39-2.12l4.43-1.91 4.46-1.87c1.49-0.6 2.94-1.09 4.41-1.64 2.95-1.05 5.88-2.2 8.86-3.15l4.46-1.47c1.48-0.51 3.04-0.89 4.56-1.34l4.58-1.29 4.56-1.14c3.06-0.8 6.07-1.44 9.09-2.1 6.04-1.3 12-2.32 17.91-3.3 23.56-3.74 45.9-5.52 66.08-8.52 2.49-0.39 5-0.77 7.42-1.19l7.01-1.39c1.16-0.23 2.34-0.39 3.49-0.69l3.48-0.83c2.31-0.58 4.64-1.04 6.93-1.69 4.59-1.35 9.18-2.55 13.71-4.11l3.41-1.11 1.7-0.55 1.69-0.64 6.74-2.51c35.82-13.99 69.53-35.74 101.27-61.68l0.5-0.4c17.33-14.17 42.86-11.6 57.02 5.73 5.09 6.23 8.01 13.48 8.87 20.91l0.31 2.63 0.24 2.28 0.44 4.44q0.4 4.37 0.72 8.68c0.45 5.75 0.74 11.47 0.96 17.18 0.43 11.41 0.59 22.81 0.29 34.22-0.26 11.42-0.83 22.86-1.89 34.31q-0.75 8.59-1.82 17.2c-0.72 5.73-1.6 11.48-2.52 17.22-3.8 22.96-9.58 45.99-18.26 68.65-4.49 11.29-9.52 22.54-15.79 33.4-6.14 10.89-13.42 21.44-21.83 31.26-4.2 4.93-8.78 9.6-13.56 14.07-2.48 2.18-4.87 4.4-7.47 6.44-1.29 1.03-2.54 2.1-3.87 3.08l-4 2.92-1.01 0.72-1.1 0.75-2.2 1.47c-1.47 0.97-2.99 2.02-4.28 2.67l-8.06 4.42c-2.7 1.53-5.34 2.71-7.99 4-2.65 1.25-5.27 2.56-7.94 3.75-21.4 9.43-43.54 16.26-65.95 20.53-22.44 4.18-45.16 5.7-67.49 4.54-22.32-1.23-44.3-5.11-64.9-12.27 21.74-1.72 42.69-5 62.87-10.1 20.17-5.05 39.56-11.76 57.97-19.99 18.37-8.33 35.77-18.1 51.83-29.16 2.01-1.38 3.94-2.86 5.91-4.27 1.94-1.43 3.98-2.84 5.7-4.3l5.39-4.27c1-0.72 1.55-1.36 2.2-2.01l0.98-0.95 0.48-0.48 0.53-0.55c2.88-2.93 5.6-6.04 8.18-9.26 2.52-3.32 4.93-6.72 7.19-10.29 8.95-14.36 15.61-31.04 20.39-48.88 4.82-17.85 7.84-36.78 9.72-56.11 0.45-4.84 0.86-9.69 1.14-14.59 0.32-4.88 0.6-9.78 0.76-14.71 0.19-4.92 0.27-9.86 0.33-14.81q0.11-7.42 0-14.87c-0.18-9.92-0.47-19.87-1.08-29.78q-0.48-7.43-1.07-14.77-0.3-3.67-0.66-7.26l-0.37-3.53-0.36-3.04 66.38 26.24c-18.49 15.15-38.16 29.37-59.45 41.68-5.24 3.19-10.78 5.99-16.2 8.91-2.75 1.43-5.56 2.76-8.34 4.14l-4.18 2.05-4.26 1.92-8.56 3.75-8.74 3.46c-1.47 0.56-2.9 1.18-4.39 1.69l-4.45 1.57c-2.97 1.02-5.91 2.12-8.94 3.02l-9.07 2.71-2.27 0.67-2.3 0.59-4.6 1.16c-3.08 0.74-6.11 1.62-9.25 2.19l-9.33 1.85c-3.11 0.6-6.28 1-9.41 1.5l-4.71 0.7c-1.56 0.26-3.16 0.36-4.73 0.55l-9.49 0.92c-3.09 0.23-6.1 0.39-9.14 0.57-24.04 1.16-46.15 0.32-66.82 0.76-2.54 0.08-5.13 0.12-7.65 0.23-2.5 0.14-5.07 0.21-7.51 0.38-2.47 0.16-4.96 0.29-7.36 0.53l-3.64 0.32-3.56 0.43c-2.36 0.25-4.77 0.64-7.19 1.01-2.43 0.33-4.79 0.84-7.2 1.25-1.19 0.22-2.44 0.41-3.59 0.66l-3.43 0.8-3.45 0.76c-1.14 0.27-2.24 0.62-3.36 0.92-18 4.89-34.31 13.04-47.82 25.61l-2.46 2.44c-0.81 0.83-1.69 1.61-2.43 2.5-1.54 1.76-3.17 3.47-4.59 5.36l-2.23 2.79-2.09 2.94-1.05 1.47q-0.5 0.76-0.98 1.54l-1.97 3.09c-5.09 8.39-9.26 17.73-12.67 27.62-6.68 19.89-9.97 41.84-11.5 64.43z" style="fill: rgb(146, 20, 12);"/></g></g></g><text style="font-family: Poppins; font-size: 72px; font-weight: 800; letter-spacing: -2.1px; white-space: pre;" x="175.557" y="221.743">MEDICUS</text><defs><style bx:fonts="Poppins">@import url(https://fonts.googleapis.com/css2?family=Poppins%3Aital%2Cwght%400%2C100%3B0%2C200%3B0%2C300%3B0%2C400%3B0%2C500%3B0%2C600%3B0%2C700%3B0%2C800%3B0%2C900%3B1%2C100%3B1%2C200%3B1%2C300%3B1%2C400%3B1%2C500%3B1%2C600%3B1%2C700%3B1%2C800%3B1%2C900&amp;display=swap);</style><bx:export><bx:file format="svg"/></bx:export></defs><text style="white-space: pre; fill: rgb(51, 51, 51); font-family: Arial, sans-serif; font-size: 28px;" x="332.598" y="22.59"> </text></svg>