<svg viewBox="0 0 24 24" fill="none" xmlns="http://www.w3.org/2000/svg" x="0" y="0"><g id="Icon_2">
<path id="Vector_13" d="M11,21.73c0.304,0.175 0.649,0.268 1,0.268c0.351,0 0.696,-0.093 1,-0.268l7,-4c0.304,-0.175 0.556,-0.428 0.732,-0.731c0.175,-0.304 0.268,-0.648 0.268,-0.999v-8c0,-0.351 -0.093,-0.695 -0.268,-0.999c-0.176,-0.304 -0.428,-0.556 -0.732,-0.731l-7,-4c-0.304,-0.176 -0.649,-0.268 -1,-0.268c-0.351,0 -0.696,0.092 -1,0.268l-7,4c-0.304,0.175 -0.556,0.427 -0.732,0.731c-0.175,0.304 -0.268,0.648 -0.268,0.999v8c0,0.351 0.093,0.695 0.268,0.999c0.176,0.303 0.428,0.556 0.732,0.731z" stroke="white" stroke-width="2" stroke-linecap="round" stroke-linejoin="round"/>
<path id="Vector_14" d="M12,22v-10" stroke="white" stroke-width="2" stroke-linecap="round" stroke-linejoin="round"/>
<path id="Vector_15" d="M3.29,7l8.71,5l8.71,-5" stroke="white" stroke-width="2" stroke-linecap="round" stroke-linejoin="round"/>
<path id="Vector_16" d="M7.5,4.27l9,5.15" stroke="white" stroke-width="2" stroke-linecap="round" stroke-linejoin="round"/>
</g></svg>