<svg viewBox="0 0 18 18" fill="none" xmlns="http://www.w3.org/2000/svg" x="0" y="0"><g id="Icon_5">
<path id="Vector_22" d="M8.2505,16.298c0.228,0.132 0.486,0.201 0.75,0.201c0.263,0 0.521,-0.069 0.75,-0.201l5.25,-3c0.227,-0.132 0.417,-0.321 0.548,-0.548c0.132,-0.228 0.201,-0.487 0.202,-0.75v-6c-0.001,-0.263 -0.07,-0.521 -0.202,-0.749c-0.131,-0.227 -0.321,-0.417 -0.548,-0.548l-5.25,-3c-0.229,-0.132 -0.487,-0.201 -0.75,-0.201c-0.264,0 -0.522,0.069 -0.75,0.201l-5.25,3c-0.228,0.131 -0.418,0.321 -0.549,0.548c-0.132,0.228 -0.201,0.486 -0.201,0.749v6c0,0.263 0.069,0.522 0.201,0.75c0.131,0.227 0.321,0.416 0.549,0.548z" stroke="white" stroke-width="1.5" stroke-linecap="round" stroke-linejoin="round"/>
<path id="Vector_23" d="M9.0005,16.5v-7.5" stroke="white" stroke-width="1.5" stroke-linecap="round" stroke-linejoin="round"/>
<path id="Vector_24" d="M2.4675,5.25l6.533,3.75l6.532,-3.75" stroke="white" stroke-width="1.5" stroke-linecap="round" stroke-linejoin="round"/>
<path id="Vector_25" d="M5.6245,3.202l6.75,3.863" stroke="white" stroke-width="1.5" stroke-linecap="round" stroke-linejoin="round"/>
</g></svg>