<svg viewBox="0 0 24 24" fill="none" xmlns="http://www.w3.org/2000/svg" x="0" y="0"><g id="Icon">
<path id="Vector" d="M7,3h-3c-0.552,0 -1,0.448 -1,1v3c0,0.552 0.448,1 1,1h3c0.552,0 1,-0.448 1,-1v-3c0,-0.552 -0.448,-1 -1,-1z" stroke="white" stroke-width="2" stroke-linecap="round" stroke-linejoin="round"/>
<path id="Vector_2" d="M20,3h-3c-0.552,0 -1,0.448 -1,1v3c0,0.552 0.448,1 1,1h3c0.552,0 1,-0.448 1,-1v-3c0,-0.552 -0.448,-1 -1,-1z" stroke="white" stroke-width="2" stroke-linecap="round" stroke-linejoin="round"/>
<path id="Vector_3" d="M7,16h-3c-0.552,0 -1,0.448 -1,1v3c0,0.552 0.448,1 1,1h3c0.552,0 1,-0.448 1,-1v-3c0,-0.552 -0.448,-1 -1,-1z" stroke="white" stroke-width="2" stroke-linecap="round" stroke-linejoin="round"/>
<path id="Vector_4" d="M21,16h-3c-0.53,0 -1.039,0.211 -1.414,0.586c-0.375,0.375 -0.586,0.884 -0.586,1.414v3" stroke="white" stroke-width="2" stroke-linecap="round" stroke-linejoin="round"/>
<path id="Vector_5" d="M21,21v0.01" stroke="white" stroke-width="2" stroke-linecap="round" stroke-linejoin="round"/>
<path id="Vector_6" d="M12,7v3c0,0.53 -0.211,1.039 -0.586,1.414c-0.375,0.375 -0.884,0.586 -1.414,0.586h-3" stroke="white" stroke-width="2" stroke-linecap="round" stroke-linejoin="round"/>
<path id="Vector_7" d="M3,12h0.01" stroke="white" stroke-width="2" stroke-linecap="round" stroke-linejoin="round"/>
<path id="Vector_8" d="M12,3h0.01" stroke="white" stroke-width="2" stroke-linecap="round" stroke-linejoin="round"/>
<path id="Vector_9" d="M12,16v0.01" stroke="white" stroke-width="2" stroke-linecap="round" stroke-linejoin="round"/>
<path id="Vector_10" d="M16,12h1" stroke="white" stroke-width="2" stroke-linecap="round" stroke-linejoin="round"/>
<path id="Vector_11" d="M21,12v0.01" stroke="white" stroke-width="2" stroke-linecap="round" stroke-linejoin="round"/>
<path id="Vector_12" d="M12,21v-1" stroke="white" stroke-width="2" stroke-linecap="round" stroke-linejoin="round"/>
</g></svg>