<svg viewBox="0 0 18 18" fill="none" xmlns="http://www.w3.org/2000/svg" x="0" y="0"><g id="Icon_6">
<path id="Vector_25" d="M5.2504,2.25h-2.25c-0.415,0 -0.75,0.336 -0.75,0.75v2.25c0,0.414 0.335,0.75 0.75,0.75h2.25c0.414,0 0.75,-0.336 0.75,-0.75v-2.25c0,-0.414 -0.336,-0.75 -0.75,-0.75z" stroke="white" stroke-width="1.5" stroke-linecap="round" stroke-linejoin="round"/>
<path id="Vector_26" d="M15.0004,2.25h-2.25c-0.415,0 -0.75,0.336 -0.75,0.75v2.25c0,0.414 0.335,0.75 0.75,0.75h2.25c0.414,0 0.75,-0.336 0.75,-0.75v-2.25c0,-0.414 -0.336,-0.75 -0.75,-0.75z" stroke="white" stroke-width="1.5" stroke-linecap="round" stroke-linejoin="round"/>
<path id="Vector_27" d="M5.2504,12h-2.25c-0.415,0 -0.75,0.336 -0.75,0.75v2.25c0,0.414 0.335,0.75 0.75,0.75h2.25c0.414,0 0.75,-0.336 0.75,-0.75v-2.25c0,-0.414 -0.336,-0.75 -0.75,-0.75z" stroke="white" stroke-width="1.5" stroke-linecap="round" stroke-linejoin="round"/>
<path id="Vector_28" d="M15.7504,12h-2.25c-0.398,0 -0.78,0.158 -1.061,0.439c-0.281,0.282 -0.439,0.663 -0.439,1.061v2.25" stroke="white" stroke-width="1.5" stroke-linecap="round" stroke-linejoin="round"/>
<path id="Vector_29" d="M15.7504,15.75v0.008" stroke="white" stroke-width="1.5" stroke-linecap="round" stroke-linejoin="round"/>
<path id="Vector_30" d="M9.0004,5.25v2.25c0,0.398 -0.158,0.779 -0.44,1.061c-0.281,0.281 -0.663,0.439 -1.06,0.439h-2.25" stroke="white" stroke-width="1.5" stroke-linecap="round" stroke-linejoin="round"/>
<path id="Vector_31" d="M2.2504,9h0.007" stroke="white" stroke-width="1.5" stroke-linecap="round" stroke-linejoin="round"/>
<path id="Vector_32" d="M9.0004,2.25h0.007" stroke="white" stroke-width="1.5" stroke-linecap="round" stroke-linejoin="round"/>
<path id="Vector_33" d="M9.0004,12v0.008" stroke="white" stroke-width="1.5" stroke-linecap="round" stroke-linejoin="round"/>
<path id="Vector_34" d="M12.0004,9h0.75" stroke="white" stroke-width="1.5" stroke-linecap="round" stroke-linejoin="round"/>
<path id="Vector_35" d="M15.7504,9v0.008" stroke="white" stroke-width="1.5" stroke-linecap="round" stroke-linejoin="round"/>
<path id="Vector_36" d="M9.0004,15.75v-0.75" stroke="white" stroke-width="1.5" stroke-linecap="round" stroke-linejoin="round"/>
</g></svg>