<svg viewBox="0 0 20 20" fill="none" xmlns="http://www.w3.org/2000/svg" x="0" y="0"><g id="Icon_5">
<path id="Vector_22" d="M5.833,2.5h-2.5c-0.46,0 -0.833,0.373 -0.833,0.833v2.5c0,0.461 0.373,0.834 0.833,0.834h2.5c0.461,0 0.834,-0.373 0.834,-0.834v-2.5c0,-0.46 -0.373,-0.833 -0.834,-0.833z" stroke="white" stroke-width="1.66667" stroke-linecap="round" stroke-linejoin="round"/>
<path id="Vector_23" d="M16.667,2.5h-2.5c-0.46,0 -0.834,0.373 -0.834,0.833v2.5c0,0.461 0.374,0.834 0.834,0.834h2.5c0.46,0 0.833,-0.373 0.833,-0.834v-2.5c0,-0.46 -0.373,-0.833 -0.833,-0.833z" stroke="white" stroke-width="1.66667" stroke-linecap="round" stroke-linejoin="round"/>
<path id="Vector_24" d="M5.833,13.333h-2.5c-0.46,0 -0.833,0.373 -0.833,0.833v2.5c0,0.461 0.373,0.834 0.833,0.834h2.5c0.461,0 0.834,-0.373 0.834,-0.834v-2.5c0,-0.46 -0.373,-0.833 -0.834,-0.833z" stroke="white" stroke-width="1.66667" stroke-linecap="round" stroke-linejoin="round"/>
<path id="Vector_25" d="M17.5,13.333h-2.5c-0.442,0 -0.866,0.176 -1.178,0.488c-0.313,0.313 -0.489,0.737 -0.489,1.179v2.5" stroke="white" stroke-width="1.66667" stroke-linecap="round" stroke-linejoin="round"/>
<path id="Vector_26" d="M17.5,17.5v0.008" stroke="white" stroke-width="1.66667" stroke-linecap="round" stroke-linejoin="round"/>
<path id="Vector_27" d="M10,5.833v2.5c0,0.442 -0.175,0.866 -0.488,1.179c-0.313,0.312 -0.736,0.488 -1.179,0.488h-2.5" stroke="white" stroke-width="1.66667" stroke-linecap="round" stroke-linejoin="round"/>
<path id="Vector_28" d="M2.5,10h0.008" stroke="white" stroke-width="1.66667" stroke-linecap="round" stroke-linejoin="round"/>
<path id="Vector_29" d="M10,2.5h0.008" stroke="white" stroke-width="1.66667" stroke-linecap="round" stroke-linejoin="round"/>
<path id="Vector_30" d="M10,13.333v0.008" stroke="white" stroke-width="1.66667" stroke-linecap="round" stroke-linejoin="round"/>
<path id="Vector_31" d="M13.333,10h0.834" stroke="white" stroke-width="1.66667" stroke-linecap="round" stroke-linejoin="round"/>
<path id="Vector_32" d="M17.5,10v0.008" stroke="white" stroke-width="1.66667" stroke-linecap="round" stroke-linejoin="round"/>
<path id="Vector_33" d="M10,17.5v-0.833" stroke="white" stroke-width="1.66667" stroke-linecap="round" stroke-linejoin="round"/>
</g></svg>