<?xml version="1.0" encoding="UTF-8"?>
<svg xmlns="http://www.w3.org/2000/svg" xmlns:xlink="http://www.w3.org/1999/xlink" width="1190px" height="1190px" viewBox="0 0 900 900" version="1.1">
<g id="surface1">
<path style=" stroke:none;fill-rule:nonzero;fill:rgb(0%,0%,0%);fill-opacity:1;" d="M 327.300781 478.5 L 343.949219 478.5 L 343.949219 445.125 L 355.351562 478.5 L 369.375 478.5 L 380.699219 445.351562 L 380.699219 478.5 L 397.425781 478.5 L 397.425781 418.425781 L 377.25 418.425781 L 362.550781 457.425781 L 347.476562 418.425781 L 327.300781 418.425781 Z M 428.25 443.324219 C 432.074219 443.324219 435.375 445.648438 435.375 449.851562 L 420.675781 449.851562 C 421.425781 445.5 424.199219 443.324219 428.25 443.324219 Z M 451.425781 462 L 433.574219 462 C 432.675781 463.949219 430.875 465.75 427.648438 465.75 C 423.898438 465.75 420.898438 463.5 420.601562 457.949219 L 452.175781 457.949219 C 452.324219 456.675781 452.476562 455.324219 452.476562 454.050781 C 452.476562 439.199219 442.5 430.125 428.324219 430.125 C 414 430.125 404.023438 439.425781 404.023438 454.574219 C 404.023438 469.800781 414.148438 479.101562 428.324219 479.101562 C 440.25 479.101562 449.175781 471.75 451.425781 462 Z M 456.523438 454.574219 C 456.523438 469.800781 465.601562 479.101562 476.925781 479.101562 C 483.675781 479.101562 488.398438 476.101562 490.875 471.898438 L 490.875 478.5 L 507.675781 478.5 L 507.675781 415.425781 L 490.875 415.425781 L 490.875 437.25 C 488.25 432.898438 483.300781 430.125 477 430.125 C 465.601562 430.125 456.523438 439.351562 456.523438 454.574219 Z M 490.949219 454.574219 C 490.949219 461.023438 486.976562 464.550781 482.25 464.550781 C 477.523438 464.550781 473.550781 460.949219 473.550781 454.574219 C 473.550781 448.125 477.523438 444.675781 482.25 444.675781 C 486.976562 444.675781 490.949219 448.199219 490.949219 454.574219 Z M 517.050781 478.5 L 533.699219 478.5 L 533.699219 430.726562 L 517.050781 430.726562 Z M 525.449219 426.226562 C 531.300781 426.226562 535.199219 422.476562 535.199219 417.75 C 535.199219 412.875 531.300781 409.050781 525.449219 409.050781 C 519.523438 409.050781 515.625 412.875 515.625 417.75 C 515.625 422.476562 519.523438 426.226562 525.449219 426.226562 Z M 540.523438 454.574219 C 540.523438 469.800781 550.5 479.101562 564.75 479.101562 C 576.824219 479.101562 585.675781 471.976562 588.074219 460.199219 L 570.375 460.199219 C 569.398438 463.125 567.523438 464.851562 564.375 464.851562 C 560.324219 464.851562 557.550781 461.476562 557.550781 454.574219 C 557.550781 447.75 560.324219 444.300781 564.375 444.300781 C 567.523438 444.300781 569.398438 446.101562 570.375 449.023438 L 588.074219 449.023438 C 585.675781 437.023438 576.824219 430.125 564.75 430.125 C 550.5 430.125 540.523438 439.351562 540.523438 454.574219 Z M 643.949219 430.726562 L 627.148438 430.726562 L 627.148438 456.300781 C 627.148438 461.851562 624.074219 465.074219 619.199219 465.074219 C 614.476562 465.074219 611.324219 461.851562 611.324219 456.300781 L 611.324219 430.726562 L 594.675781 430.726562 L 594.675781 458.476562 C 594.675781 471.074219 601.574219 478.875 612.675781 478.875 C 619.425781 478.875 624.449219 475.726562 627.148438 471.675781 L 627.148438 478.5 L 643.949219 478.5 Z M 693.75 464.476562 C 693.675781 446.324219 668.175781 451.726562 668.175781 444.976562 C 668.175781 443.175781 669.601562 442.050781 672.375 442.050781 C 675.898438 442.050781 678.074219 443.851562 678.601562 446.851562 L 693.675781 446.851562 C 692.550781 437.324219 685.726562 430.125 672.675781 430.125 C 659.773438 430.125 652.875 437.023438 652.875 445.351562 C 652.875 462.898438 678.226562 457.199219 678.226562 464.175781 C 678.226562 465.898438 676.574219 467.25 673.800781 467.25 C 670.273438 467.25 667.648438 465.523438 667.273438 462.375 L 651.074219 462.375 C 651.75 471.976562 660.601562 479.101562 673.875 479.101562 C 686.25 479.101562 693.75 472.800781 693.75 464.476562 Z M 693.75 464.476562 "/>
<path style=" stroke:none;fill-rule:nonzero;fill:rgb(11.764706%,11.764706%,14.117648%);fill-opacity:1;" d="M 232.261719 387.308594 C 231.023438 380.265625 230.054688 373.222656 229.148438 366.179688 L 228.816406 363.539062 L 228.660156 362.21875 L 228.613281 361.890625 C 228.609375 361.785156 228.59375 361.65625 228.570312 361.589844 L 228.464844 361.09375 C 228.1875 359.78125 227.683594 358.574219 227.011719 357.511719 C 226.320312 356.460938 225.480469 355.539062 224.503906 354.832031 C 223.53125 354.128906 222.472656 353.609375 221.378906 353.316406 C 220.28125 353.023438 219.195312 352.925781 218.113281 353.023438 L 213.195312 353.476562 L 207.90625 353.941406 C 206.148438 354.089844 204.386719 354.234375 202.628906 354.375 C 195.582031 354.941406 188.539062 355.4375 181.492188 355.867188 C 177.972656 356.085938 174.449219 356.292969 170.925781 356.484375 L 169.605469 356.558594 L 168.945312 356.59375 L 168.78125 356.601562 L 168.699219 356.601562 L 168.667969 356.609375 L 168.546875 356.640625 C 168.460938 356.660156 168.378906 356.675781 168.300781 356.683594 C 168.21875 356.691406 168.140625 356.707031 168.058594 356.738281 C 167.910156 356.789062 167.753906 356.820312 167.601562 356.863281 C 167.003906 357.058594 166.484375 357.40625 166.011719 357.789062 C 165.546875 358.183594 165.15625 358.65625 164.871094 359.167969 C 164.59375 359.683594 164.40625 360.210938 164.316406 360.757812 C 164.265625 361.027344 164.265625 361.304688 164.257812 361.574219 C 164.265625 361.644531 164.273438 361.714844 164.273438 361.785156 L 164.28125 361.890625 L 164.28125 361.941406 L 164.273438 361.964844 L 164.28125 362.039062 L 164.496094 368.640625 C 164.722656 375.691406 164.898438 382.738281 165.023438 389.78125 C 165.058594 391.542969 165.085938 393.300781 165.105469 395.0625 L 165.105469 395.289062 L 165.097656 395.574219 L 165.074219 396.140625 L 165.023438 397.289062 C 165.007812 397.671875 164.96875 398.050781 164.910156 398.429688 C 164.859375 398.808594 164.804688 399.191406 164.746094 399.570312 C 164.65625 400.335938 164.445312 401.078125 164.265625 401.828125 C 164.160156 402.195312 164.085938 402.578125 163.957031 402.9375 C 163.832031 403.300781 163.703125 403.667969 163.574219 404.03125 C 161.46875 409.828125 157.191406 414.734375 151.761719 417.644531 C 151.078125 417.996094 150.382812 418.324219 149.675781 418.636719 C 148.957031 418.921875 148.234375 419.1875 147.503906 419.4375 C 146.761719 419.648438 146.015625 419.84375 145.265625 420.03125 C 144.515625 420.1875 143.753906 420.292969 142.988281 420.40625 C 142.609375 420.464844 142.226562 420.503906 141.847656 420.515625 L 140.699219 420.585938 C 139.792969 420.621094 139.539062 420.609375 139.058594 420.613281 L 136.417969 420.613281 L 125.851562 420.5625 C 122.324219 420.523438 118.800781 420.503906 115.273438 420.441406 L 105.480469 420.269531 C 104.960938 420.265625 104.453125 420.351562 103.957031 420.53125 C 103.460938 420.703125 102.96875 420.976562 102.539062 421.335938 C 102.105469 421.703125 101.742188 422.140625 101.453125 422.640625 C 101.171875 423.136719 100.988281 423.6875 100.898438 424.296875 L 100.875 424.417969 L 100.859375 424.46875 C 100.859375 424.480469 100.859375 424.492188 100.851562 424.507812 L 100.851562 424.589844 L 100.828125 425.25 L 100.777344 426.570312 L 100.671875 429.210938 L 100.449219 434.496094 C 100.28125 438.023438 100.125 441.546875 99.929688 445.074219 C 99.757812 448.597656 99.539062 452.121094 99.328125 455.648438 C 99.109375 459.167969 98.878906 462.691406 98.632812 466.214844 C 98.511719 467.980469 98.382812 469.742188 98.242188 471.503906 L 97.914062 475.980469 C 97.882812 476.992188 98.046875 478.027344 98.414062 479.023438 C 98.773438 480.03125 99.34375 480.988281 100.078125 481.851562 C 100.816406 482.707031 101.738281 483.441406 102.773438 484.011719 L 103.171875 484.230469 C 103.304688 484.289062 103.441406 484.347656 103.582031 484.402344 L 104.003906 484.582031 C 104.136719 484.65625 104.289062 484.671875 104.429688 484.726562 L 104.871094 484.859375 C 104.949219 484.886719 105.023438 484.90625 105.097656 484.925781 L 105.324219 484.972656 L 105.789062 485.0625 L 106.019531 485.113281 C 106.066406 485.121094 106.085938 485.128906 106.148438 485.136719 L 106.3125 485.152344 C 109.835938 485.515625 113.363281 485.90625 116.886719 486.324219 C 123.9375 487.164062 130.988281 488.078125 138.039062 489.253906 C 130.996094 490.5 123.953125 491.476562 116.917969 492.382812 C 113.390625 492.832031 109.871094 493.253906 106.351562 493.648438 L 106.183594 493.671875 C 106.132812 493.679688 106.050781 493.679688 105.984375 493.679688 L 105.554688 493.703125 L 104.691406 493.734375 L 104.265625 493.746094 C 104.121094 493.742188 103.976562 493.734375 103.828125 493.726562 L 102.96875 493.664062 C 102.683594 493.640625 102.382812 493.640625 102.097656 493.582031 L 101.234375 493.441406 C 100.945312 493.394531 100.65625 493.34375 100.371094 493.28125 L 99.515625 493.058594 C 97.246094 492.433594 95.078125 491.363281 93.136719 489.929688 C 91.199219 488.496094 89.511719 486.683594 88.183594 484.597656 C 86.851562 482.503906 85.925781 480.121094 85.449219 477.644531 L 85.351562 477.179688 C 85.324219 477.019531 85.300781 476.863281 85.28125 476.707031 L 85.171875 475.769531 L 85.117188 475.289062 L 85.078125 474.871094 L 85.027344 474.210938 L 84.796875 471.5625 C 84.644531 469.800781 84.5 468.042969 84.359375 466.28125 C 84.078125 462.761719 83.816406 459.238281 83.566406 455.714844 C 83.324219 452.199219 83.078125 448.671875 82.867188 445.148438 C 82.636719 441.628906 82.449219 438.105469 82.253906 434.585938 L 81.984375 429.300781 L 81.847656 426.660156 L 81.78125 425.339844 L 81.75 424.679688 L 81.75 424.191406 L 81.757812 423.644531 C 81.78125 420.742188 82.34375 417.789062 83.421875 415.035156 C 84.503906 412.273438 86.121094 409.746094 88.125 407.566406 C 90.128906 405.382812 92.542969 403.550781 95.226562 402.21875 C 97.90625 400.882812 100.859375 400.042969 103.84375 399.757812 L 104.960938 399.675781 C 105.324219 399.652344 105.78125 399.621094 105.929688 399.621094 L 107.257812 399.585938 L 109.898438 399.511719 L 115.175781 399.375 C 118.703125 399.285156 122.226562 399.226562 125.753906 399.148438 L 136.320312 399 L 138.960938 398.976562 C 139.359375 398.976562 139.988281 398.976562 139.957031 398.953125 C 140.015625 398.949219 140.078125 398.949219 140.136719 398.949219 C 140.191406 398.953125 140.246094 398.945312 140.300781 398.925781 C 140.40625 398.894531 140.527344 398.894531 140.632812 398.871094 C 140.738281 398.832031 140.84375 398.804688 140.949219 398.789062 C 141.046875 398.734375 141.148438 398.695312 141.253906 398.671875 C 141.351562 398.617188 141.441406 398.558594 141.554688 398.519531 C 141.949219 398.308594 142.300781 398.03125 142.613281 397.6875 C 142.914062 397.34375 143.144531 396.960938 143.308594 396.546875 C 143.328125 396.496094 143.355469 396.449219 143.386719 396.398438 C 143.414062 396.351562 143.40625 396.292969 143.421875 396.238281 C 143.445312 396.128906 143.519531 396.039062 143.511719 395.917969 C 143.515625 395.863281 143.527344 395.808594 143.542969 395.753906 C 143.5625 395.699219 143.574219 395.640625 143.574219 395.578125 C 143.566406 395.519531 143.570312 395.460938 143.578125 395.398438 L 143.585938 395.316406 L 143.601562 395.273438 L 143.601562 395.167969 C 143.609375 393.402344 143.621094 391.640625 143.640625 389.878906 C 143.699219 382.835938 143.808594 375.789062 143.960938 368.738281 L 144.082031 363.449219 L 144.121094 362.128906 L 144.148438 361.621094 L 144.179688 361.066406 L 144.253906 359.953125 C 144.421875 358.476562 144.683594 357.007812 145.109375 355.582031 C 145.941406 352.71875 147.300781 350.03125 149.09375 347.691406 C 150.871094 345.351562 153.066406 343.359375 155.550781 341.8125 C 158.023438 340.273438 160.792969 339.1875 163.640625 338.664062 C 164.355469 338.527344 165.074219 338.453125 165.789062 338.363281 C 166.148438 338.316406 166.507812 338.292969 166.867188 338.289062 L 167.941406 338.257812 L 168.480469 338.25 L 168.699219 338.25 L 168.863281 338.257812 L 169.523438 338.289062 L 170.84375 338.347656 C 174.367188 338.507812 177.890625 338.679688 181.417969 338.863281 C 188.460938 339.234375 195.511719 339.671875 202.558594 340.171875 C 204.320312 340.289062 206.082031 340.417969 207.847656 340.550781 L 213.136719 340.964844 L 215.773438 341.175781 L 217.09375 341.289062 L 217.851562 341.355469 L 218.773438 341.460938 C 221.210938 341.761719 223.597656 342.496094 225.71875 343.640625 C 227.84375 344.78125 229.734375 346.289062 231.261719 348.074219 C 232.792969 349.84375 233.960938 351.890625 234.71875 354.050781 C 235.476562 356.203125 235.816406 358.46875 235.734375 360.675781 L 235.695312 361.5 C 235.695312 361.648438 235.679688 361.746094 235.664062 361.859375 L 235.628906 362.191406 L 235.476562 363.511719 L 235.175781 366.15625 C 234.335938 373.207031 233.429688 380.257812 232.261719 387.308594 Z M 232.261719 387.308594 "/>
<path style=" stroke:none;fill-rule:nonzero;fill:rgb(11.764706%,11.764706%,14.117648%);fill-opacity:1;" d="M 200.542969 438.601562 C 199.574219 439.117188 198.601562 439.605469 197.648438 440.136719 C 196.683594 440.648438 195.730469 441.171875 194.789062 441.710938 C 192.90625 442.78125 191.066406 443.902344 189.269531 445.074219 C 187.464844 446.238281 185.71875 447.457031 184.027344 448.734375 C 183.179688 449.363281 182.355469 450.023438 181.53125 450.675781 C 180.726562 451.351562 179.917969 452.015625 179.144531 452.722656 C 177.578125 454.101562 176.097656 455.546875 174.699219 457.050781 C 173.308594 458.550781 172.011719 460.074219 170.863281 461.699219 L 170.421875 462.300781 C 170.28125 462.5 170.144531 462.703125 170.011719 462.914062 C 169.738281 463.324219 169.46875 463.734375 169.199219 464.144531 L 168.449219 465.414062 C 168.320312 465.617188 168.199219 465.828125 168.089844 466.050781 L 167.746094 466.695312 L 167.390625 467.339844 C 167.289062 467.554688 167.183594 467.773438 167.078125 467.992188 C 166.875 468.433594 166.648438 468.863281 166.453125 469.3125 L 165.886719 470.648438 C 165.691406 471.089844 165.53125 471.554688 165.359375 472.003906 C 164.699219 473.828125 164.109375 475.671875 163.679688 477.585938 C 163.238281 479.484375 162.855469 481.410156 162.601562 483.375 L 162.496094 484.109375 L 162.414062 484.851562 L 162.253906 486.34375 C 162.164062 487.371094 162.050781 488.398438 161.976562 489.433594 C 161.917969 490.460938 161.820312 491.484375 161.78125 492.515625 L 161.699219 494.054688 C 161.679688 494.566406 161.664062 495.078125 161.648438 495.59375 C 161.527344 499.695312 161.585938 503.796875 161.804688 507.976562 C 161.898438 510.058594 162.023438 512.164062 162.171875 514.28125 L 162.621094 520.703125 C 162.78125 522.863281 162.933594 525.039062 163.078125 527.234375 L 163.507812 533.574219 L 163.640625 535.109375 L 163.710938 535.824219 L 163.746094 536.160156 L 163.785156 536.484375 C 163.886719 537.324219 164.011719 538.007812 164.160156 538.539062 C 164.308594 539.070312 164.46875 539.429688 164.625 539.691406 C 164.671875 539.753906 164.710938 539.8125 164.753906 539.871094 C 164.792969 539.925781 164.835938 539.984375 164.878906 540.039062 C 164.898438 540.0625 164.921875 540.085938 164.949219 540.113281 C 164.960938 540.140625 164.984375 540.171875 165.015625 540.203125 C 165.078125 540.265625 165.140625 540.335938 165.195312 540.40625 C 165.691406 540.929688 166.335938 541.359375 167.023438 541.628906 C 167.714844 541.890625 168.425781 542.003906 169.074219 541.949219 L 175.378906 541.746094 L 181.890625 541.574219 C 190.558594 541.34375 199.234375 541.164062 207.90625 541.027344 L 214.410156 540.9375 L 217.65625 540.898438 L 218.054688 540.890625 C 218.089844 540.882812 218.125 540.875 218.160156 540.871094 C 218.230469 540.859375 218.300781 540.859375 218.378906 540.863281 C 218.453125 540.871094 218.511719 540.832031 218.578125 540.824219 C 218.648438 540.808594 218.71875 540.800781 218.789062 540.796875 C 219.324219 540.664062 219.8125 540.429688 220.253906 540.089844 C 220.695312 539.746094 221.085938 539.308594 221.308594 538.816406 C 221.550781 538.320312 221.691406 537.816406 221.714844 537.238281 C 221.71875 537.203125 221.726562 537.171875 221.730469 537.136719 L 221.730469 534.308594 L 221.722656 531.050781 L 221.761719 518.039062 L 221.871094 505.035156 C 221.886719 504.449219 221.863281 504.121094 221.925781 503.015625 C 221.949219 502.558594 221.980469 502.09375 222.015625 501.628906 C 222.046875 501.164062 222.136719 500.707031 222.203125 500.242188 C 222.273438 499.78125 222.351562 499.324219 222.433594 498.863281 C 222.546875 498.40625 222.660156 497.953125 222.78125 497.503906 C 222.996094 496.589844 223.335938 495.71875 223.664062 494.84375 C 223.75 494.628906 223.835938 494.414062 223.921875 494.199219 L 224.21875 493.558594 C 224.421875 493.140625 224.625 492.722656 224.835938 492.308594 C 224.941406 492.097656 225.054688 491.894531 225.179688 491.699219 L 225.539062 491.101562 C 225.78125 490.703125 226.03125 490.316406 226.289062 489.929688 C 226.558594 489.554688 226.835938 489.183594 227.121094 488.8125 C 227.40625 488.445312 227.683594 488.078125 228 487.738281 C 228.628906 487.058594 229.238281 486.359375 229.941406 485.761719 C 232.664062 483.269531 235.949219 481.386719 239.488281 480.308594 C 240.382812 480.074219 241.273438 479.828125 242.183594 479.671875 C 242.636719 479.601562 243.09375 479.535156 243.546875 479.476562 L 244.230469 479.386719 C 244.453125 479.363281 244.683594 479.351562 244.914062 479.339844 C 245.367188 479.320312 245.824219 479.300781 246.285156 479.289062 L 246.621094 479.28125 L 246.898438 479.28125 L 247.3125 479.289062 L 248.933594 479.324219 C 253.273438 479.421875 257.609375 479.53125 261.945312 479.664062 C 266.285156 479.789062 270.621094 479.925781 274.957031 480.074219 L 278.210938 480.195312 L 279.839844 480.253906 L 280.648438 480.285156 L 280.851562 480.292969 L 280.957031 480.300781 L 281.160156 480.300781 C 282.023438 480.34375 282.886719 480.234375 283.726562 479.917969 L 283.808594 479.886719 L 283.882812 479.851562 L 284.03125 479.773438 C 284.136719 479.726562 284.242188 479.675781 284.347656 479.632812 C 284.441406 479.574219 284.539062 479.511719 284.640625 479.453125 C 284.738281 479.390625 284.851562 479.355469 284.933594 479.273438 C 285.105469 479.121094 285.324219 479.011719 285.480469 478.835938 C 285.570312 478.757812 285.664062 478.683594 285.757812 478.613281 C 285.835938 478.527344 285.917969 478.441406 285.996094 478.351562 C 286.636719 477.652344 287.167969 476.820312 287.445312 475.867188 C 287.46875 475.746094 287.503906 475.625 287.542969 475.5 L 287.59375 475.320312 C 287.609375 475.261719 287.621094 475.199219 287.625 475.132812 C 287.644531 475.007812 287.667969 474.882812 287.691406 474.757812 L 287.707031 474.660156 C 287.714844 474.621094 287.722656 474.613281 287.722656 474.53125 L 287.746094 474.121094 L 287.917969 470.871094 L 288.269531 464.363281 C 288.761719 455.6875 289.324219 447.011719 289.957031 438.335938 C 290.273438 433.996094 290.613281 429.65625 290.976562 425.316406 L 291.046875 424.507812 L 291.058594 424.304688 C 291.066406 424.238281 291.074219 424.164062 291.074219 424.117188 L 291.089844 423.824219 L 291.136719 423.234375 L 291.140625 423.089844 L 291.136719 422.941406 L 291.128906 422.640625 C 291.117188 422.445312 291.113281 422.246094 291.113281 422.046875 L 291.03125 421.449219 C 291 421.253906 290.992188 421.042969 290.941406 420.847656 L 290.804688 420.261719 L 290.738281 419.953125 C 290.707031 419.859375 290.671875 419.765625 290.632812 419.671875 L 290.4375 419.085938 C 290.386719 418.882812 290.273438 418.703125 290.191406 418.507812 L 289.933594 417.9375 L 289.621094 417.390625 C 289.507812 417.210938 289.425781 417.007812 289.289062 416.84375 L 288.914062 416.316406 C 288.855469 416.226562 288.792969 416.140625 288.726562 416.054688 L 288.515625 415.816406 C 287.398438 414.488281 285.96875 413.371094 284.308594 412.597656 C 284.101562 412.511719 283.886719 412.429688 283.671875 412.351562 C 283.453125 412.265625 283.246094 412.164062 283.019531 412.101562 L 282.34375 411.914062 C 282.121094 411.855469 281.894531 411.78125 281.664062 411.75 L 280.964844 411.628906 L 280.605469 411.5625 L 280.199219 411.523438 L 278.574219 411.34375 C 274.238281 410.851562 269.894531 410.371094 265.558594 409.761719 C 269.886719 409.117188 274.222656 408.59375 278.558594 408.058594 L 280.183594 407.871094 L 280.589844 407.820312 L 281.046875 407.796875 L 281.96875 407.746094 C 282.285156 407.722656 282.59375 407.746094 282.898438 407.761719 L 283.835938 407.8125 C 284.152344 407.835938 284.460938 407.894531 284.765625 407.941406 C 285.082031 407.984375 285.394531 408.039062 285.703125 408.097656 C 288.179688 408.628906 290.574219 409.753906 292.640625 411.375 L 293.03125 411.683594 C 293.15625 411.789062 293.28125 411.898438 293.398438 412.011719 L 294.128906 412.6875 C 294.375 412.90625 294.585938 413.167969 294.808594 413.40625 L 295.46875 414.164062 L 296.0625 414.976562 C 296.257812 415.246094 296.476562 415.515625 296.632812 415.808594 L 297.140625 416.683594 C 297.234375 416.828125 297.316406 416.976562 297.398438 417.128906 L 297.613281 417.59375 L 298.035156 418.523438 C 298.183594 418.828125 298.273438 419.160156 298.394531 419.484375 C 298.503906 419.808594 298.613281 420.136719 298.71875 420.464844 L 298.957031 421.46875 L 299.070312 421.980469 L 299.121094 422.234375 L 299.160156 422.488281 L 299.296875 423.523438 L 299.355469 424.042969 L 299.390625 424.46875 L 299.476562 425.28125 C 299.875 429.613281 300.253906 433.949219 300.613281 438.285156 C 301.328125 446.953125 301.972656 455.625 302.542969 464.296875 L 302.953125 470.796875 L 303.15625 474.050781 L 303.179688 474.457031 C 303.1875 474.511719 303.179688 474.636719 303.1875 474.734375 L 303.1875 475.042969 C 303.1875 475.457031 303.183594 475.871094 303.171875 476.289062 C 303.171875 476.496094 303.164062 476.703125 303.148438 476.910156 L 303.089844 477.53125 C 303.046875 477.953125 302.996094 478.371094 302.949219 478.785156 C 301.941406 485.4375 297.75 491.59375 291.734375 494.984375 C 288.742188 496.679688 285.316406 497.722656 281.851562 497.941406 L 281.203125 497.984375 L 280.933594 498 L 280.734375 498.007812 L 279.921875 498.046875 L 278.296875 498.128906 L 275.046875 498.277344 C 270.707031 498.46875 266.371094 498.644531 262.035156 498.808594 C 257.699219 498.980469 253.363281 499.132812 249.03125 499.265625 L 247.402344 499.320312 L 246.996094 499.335938 L 246.898438 499.335938 L 246.871094 499.34375 L 246.800781 499.359375 C 246.71875 499.371094 246.632812 499.386719 246.546875 499.394531 C 246.507812 499.394531 246.464844 499.398438 246.421875 499.402344 C 246.378906 499.417969 246.339844 499.433594 246.300781 499.449219 C 246.226562 499.46875 246.144531 499.484375 246.058594 499.5 C 246.039062 499.503906 246.019531 499.507812 246 499.507812 L 245.949219 499.539062 C 245.90625 499.550781 245.871094 499.566406 245.835938 499.582031 C 245.753906 499.613281 245.675781 499.636719 245.601562 499.648438 C 245.011719 499.90625 244.46875 500.28125 244.035156 500.753906 C 243.90625 500.851562 243.839844 501.007812 243.726562 501.121094 C 243.667969 501.171875 243.644531 501.253906 243.601562 501.324219 C 243.558594 501.386719 243.515625 501.453125 243.464844 501.515625 C 243.433594 501.585938 243.402344 501.65625 243.367188 501.726562 C 243.351562 501.761719 243.335938 501.796875 243.316406 501.824219 C 243.289062 501.855469 243.273438 501.890625 243.261719 501.929688 C 243.238281 502.003906 243.210938 502.078125 243.179688 502.148438 C 243.164062 502.183594 243.148438 502.214844 243.128906 502.246094 C 243.121094 502.285156 243.113281 502.324219 243.105469 502.359375 C 243.074219 502.507812 243 502.640625 243 502.792969 C 242.984375 502.867188 242.96875 502.941406 242.949219 503.011719 C 242.949219 503.089844 242.945312 503.167969 242.941406 503.242188 C 242.941406 503.316406 242.902344 503.386719 242.917969 503.460938 C 242.921875 503.539062 242.925781 503.621094 242.925781 503.699219 C 242.910156 503.675781 242.925781 504.433594 242.941406 504.9375 L 243.171875 517.941406 L 243.335938 530.953125 L 243.359375 534.203125 L 243.367188 535.828125 L 243.375 536.648438 L 243.375 537.066406 L 243.351562 537.773438 C 243.269531 541.53125 242.324219 545.324219 240.601562 548.699219 C 238.882812 552.089844 236.371094 555.023438 233.363281 557.308594 C 230.355469 559.582031 226.824219 561.226562 223.101562 561.953125 C 222.632812 562.039062 222.164062 562.113281 221.699219 562.175781 C 221.226562 562.246094 220.761719 562.328125 220.296875 562.351562 C 219.828125 562.378906 219.359375 562.40625 218.886719 562.425781 L 218.183594 562.449219 L 217.761719 562.449219 L 214.507812 562.441406 L 208.003906 562.410156 C 199.328125 562.355469 190.65625 562.253906 181.980469 562.101562 L 175.476562 561.988281 L 168.773438 561.832031 C 166.925781 561.78125 165.105469 561.515625 163.351562 561.046875 C 161.585938 560.574219 159.902344 559.921875 158.300781 559.078125 C 155.113281 557.40625 152.300781 555.046875 150.128906 552.140625 C 149.863281 551.777344 149.601562 551.40625 149.347656 551.03125 C 149.09375 550.664062 148.84375 550.238281 148.605469 549.832031 C 148.371094 549.421875 148.148438 549.003906 147.9375 548.578125 C 147.734375 548.15625 147.539062 547.726562 147.359375 547.296875 C 146.640625 545.574219 146.183594 543.839844 145.90625 542.25 C 145.621094 540.652344 145.5 539.183594 145.441406 537.863281 L 145.417969 537.367188 L 145.410156 536.894531 C 145.398438 536.578125 145.390625 536.277344 145.386719 535.988281 L 145.386719 534.269531 L 145.484375 527.601562 L 145.628906 521.128906 C 145.710938 516.789062 145.835938 512.355469 146.09375 507.847656 C 146.234375 505.59375 146.414062 503.328125 146.632812 501.058594 C 146.761719 499.921875 146.863281 498.789062 147.03125 497.648438 L 147.253906 495.945312 C 147.335938 495.378906 147.421875 494.816406 147.511719 494.25 C 147.839844 491.976562 148.265625 489.726562 148.734375 487.492188 C 148.964844 486.375 149.226562 485.265625 149.476562 484.15625 C 149.609375 483.589844 149.753906 483.019531 149.902344 482.445312 L 150.121094 481.589844 L 150.367188 480.734375 C 151.003906 478.453125 151.765625 476.203125 152.664062 473.976562 C 153.546875 471.75 154.597656 469.566406 155.773438 467.46875 C 156.945312 465.359375 158.28125 463.34375 159.75 461.445312 L 160.304688 460.734375 C 160.484375 460.492188 160.675781 460.261719 160.875 460.035156 L 162.039062 458.675781 C 162.441406 458.234375 162.851562 457.796875 163.261719 457.371094 C 163.464844 457.152344 163.671875 456.9375 163.875 456.726562 L 164.519531 456.113281 C 164.953125 455.707031 165.359375 455.28125 165.808594 454.898438 L 167.136719 453.742188 C 167.578125 453.351562 168.050781 453.007812 168.511719 452.640625 C 168.964844 452.269531 169.425781 451.917969 169.890625 451.582031 C 171.742188 450.210938 173.671875 448.972656 175.628906 447.824219 C 177.585938 446.675781 179.585938 445.632812 181.628906 444.699219 C 183.664062 443.753906 185.726562 442.902344 187.816406 442.148438 C 192 440.636719 196.242188 439.453125 200.542969 438.601562 Z M 200.542969 438.601562 "/>
<path style=" stroke:none;fill-rule:nonzero;fill:rgb(57.254905%,7.843138%,4.705882%);fill-opacity:1;" d="M 144.335938 465.953125 C 144.082031 465.246094 143.84375 464.53125 143.617188 463.808594 C 143.398438 463.085938 143.191406 462.359375 142.996094 461.625 C 142.894531 461.261719 142.800781 460.890625 142.71875 460.523438 C 142.628906 460.152344 142.546875 459.78125 142.46875 459.40625 L 142.230469 458.289062 L 142.027344 457.15625 C 141.496094 454.125 141.269531 451.015625 141.34375 447.832031 C 141.421875 446.25 141.523438 444.636719 141.789062 443.03125 C 141.890625 442.222656 142.058594 441.421875 142.222656 440.617188 C 142.296875 440.210938 142.417969 439.816406 142.515625 439.410156 C 142.613281 439.011719 142.71875 438.609375 142.828125 438.203125 C 143.765625 435 145.175781 431.84375 147.082031 428.910156 L 147.824219 427.835938 C 148.078125 427.476562 148.328125 427.117188 148.605469 426.78125 C 149.152344 426.097656 149.683594 425.390625 150.292969 424.753906 L 151.183594 423.78125 C 151.496094 423.46875 151.808594 423.164062 152.128906 422.859375 C 152.445312 422.550781 152.765625 422.25 153.089844 421.949219 L 154.09375 421.09375 C 156.796875 418.835938 159.78125 416.96875 162.878906 415.46875 C 163.265625 415.28125 163.65625 415.09375 164.046875 414.90625 L 165.226562 414.40625 L 166.402344 413.910156 C 166.796875 413.753906 167.1875 413.609375 167.574219 413.46875 C 168.359375 413.191406 169.132812 412.890625 169.925781 412.636719 L 171.113281 412.246094 C 171.503906 412.109375 171.914062 412.003906 172.320312 411.890625 L 173.535156 411.546875 L 174.742188 411.246094 C 175.550781 411.039062 176.355469 410.863281 177.15625 410.683594 C 178.753906 410.339844 180.335938 410.070312 181.90625 409.816406 C 188.160156 408.816406 194.085938 408.34375 199.441406 407.550781 C 200.105469 407.449219 200.761719 407.34375 201.414062 407.234375 L 203.273438 406.867188 C 203.578125 406.808594 203.886719 406.761719 204.195312 406.6875 L 205.117188 406.460938 C 205.734375 406.3125 206.347656 406.183594 206.960938 406.011719 C 208.175781 405.660156 209.390625 405.335938 210.601562 404.925781 L 211.5 404.632812 L 211.949219 404.484375 L 212.398438 404.316406 L 214.191406 403.648438 C 223.695312 399.9375 232.636719 394.164062 241.058594 387.285156 L 241.191406 387.171875 C 245.789062 383.414062 252.5625 384.097656 256.320312 388.695312 C 257.671875 390.351562 258.449219 392.273438 258.675781 394.246094 L 258.757812 394.941406 L 258.824219 395.550781 L 258.9375 396.726562 C 259.007812 397.503906 259.074219 398.269531 259.132812 399.03125 C 259.246094 400.554688 259.332031 402.074219 259.386719 403.589844 C 259.5 406.613281 259.539062 409.640625 259.460938 412.664062 C 259.402344 415.695312 259.234375 418.730469 258.960938 421.769531 C 258.824219 423.289062 258.664062 424.8125 258.480469 426.335938 C 258.28125 427.859375 258.054688 429.378906 257.804688 430.90625 C 256.800781 436.996094 255.269531 443.109375 252.960938 449.121094 C 251.773438 452.113281 250.441406 455.101562 248.773438 457.980469 C 247.148438 460.867188 245.210938 463.671875 242.976562 466.273438 C 241.867188 467.585938 240.652344 468.824219 239.386719 470.011719 C 238.726562 470.585938 238.085938 471.179688 237.398438 471.71875 C 237.0625 471.996094 236.722656 472.265625 236.378906 472.539062 L 235.3125 473.308594 L 235.042969 473.503906 L 234.164062 474.089844 C 233.78125 474.34375 233.378906 474.628906 233.03125 474.800781 L 230.894531 475.972656 C 230.175781 476.378906 229.476562 476.691406 228.773438 477.03125 C 228.066406 477.367188 227.378906 477.710938 226.664062 478.027344 C 220.996094 480.53125 215.113281 482.339844 209.167969 483.472656 C 203.210938 484.582031 197.191406 484.988281 191.265625 484.679688 C 185.339844 484.351562 179.503906 483.324219 174.039062 481.425781 C 179.8125 480.96875 185.371094 480.097656 190.726562 478.746094 C 196.074219 477.40625 201.21875 475.628906 206.109375 473.4375 C 210.976562 471.234375 215.59375 468.636719 219.855469 465.703125 C 220.386719 465.335938 220.90625 464.949219 221.421875 464.574219 C 221.941406 464.191406 222.480469 463.816406 222.9375 463.433594 L 224.371094 462.300781 C 224.632812 462.105469 224.773438 461.933594 224.953125 461.765625 L 225.210938 461.511719 L 225.335938 461.386719 L 225.480469 461.234375 C 226.246094 460.453125 226.96875 459.636719 227.648438 458.78125 C 228.324219 457.902344 228.960938 456.992188 229.558594 456.050781 C 231.929688 452.242188 233.699219 447.816406 234.96875 443.078125 C 236.25 438.34375 237.050781 433.320312 237.546875 428.191406 C 237.671875 426.910156 237.773438 425.621094 237.847656 424.320312 C 237.9375 423.023438 238.003906 421.726562 238.050781 420.421875 C 238.101562 419.113281 238.128906 417.804688 238.140625 416.488281 C 238.160156 415.175781 238.160156 413.859375 238.140625 412.546875 C 238.09375 409.914062 238.011719 407.273438 237.855469 404.640625 C 237.769531 403.324219 237.675781 402.015625 237.570312 400.71875 C 237.515625 400.074219 237.457031 399.433594 237.398438 398.796875 L 237.292969 397.859375 L 237.203125 397.050781 L 254.8125 404.015625 C 249.90625 408.039062 244.6875 411.808594 239.039062 415.074219 C 237.644531 415.921875 236.183594 416.664062 234.742188 417.441406 C 234.007812 417.8125 233.269531 418.175781 232.53125 418.539062 L 231.421875 419.078125 L 230.289062 419.585938 L 228.015625 420.585938 L 225.699219 421.5 C 225.3125 421.660156 224.925781 421.808594 224.535156 421.949219 L 223.351562 422.371094 C 222.5625 422.640625 221.78125 422.933594 220.980469 423.171875 L 218.574219 423.886719 L 217.972656 424.066406 L 217.359375 424.222656 L 216.136719 424.53125 C 215.324219 424.726562 214.515625 424.957031 213.683594 425.113281 L 211.207031 425.601562 C 210.382812 425.761719 209.542969 425.863281 208.710938 426 L 207.464844 426.1875 C 207.046875 426.253906 206.625 426.285156 206.203125 426.328125 L 203.691406 426.578125 C 202.878906 426.632812 202.066406 426.683594 201.261719 426.726562 C 194.886719 427.035156 189.015625 426.808594 183.53125 426.929688 C 182.851562 426.945312 182.175781 426.964844 181.507812 426.988281 C 180.839844 427.027344 180.15625 427.042969 179.511719 427.09375 C 178.859375 427.132812 178.199219 427.171875 177.5625 427.230469 L 176.59375 427.320312 L 175.648438 427.433594 C 175.019531 427.507812 174.386719 427.59375 173.746094 427.695312 C 173.101562 427.785156 172.46875 427.921875 171.832031 428.03125 C 171.507812 428.085938 171.191406 428.144531 170.878906 428.203125 L 169.972656 428.414062 L 169.050781 428.617188 C 168.75 428.699219 168.453125 428.78125 168.15625 428.863281 C 163.386719 430.164062 159.058594 432.324219 155.476562 435.660156 L 154.824219 436.304688 C 154.605469 436.523438 154.371094 436.734375 154.175781 436.972656 C 153.765625 437.4375 153.335938 437.886719 152.953125 438.390625 L 152.363281 439.132812 L 151.816406 439.914062 L 151.53125 440.300781 C 151.445312 440.4375 151.359375 440.574219 151.273438 440.707031 L 150.75 441.53125 C 149.398438 443.761719 148.289062 446.234375 147.390625 448.859375 C 145.613281 454.132812 144.742188 459.960938 144.335938 465.953125 Z M 144.335938 465.953125 "/>
</g>
</svg>
